<?xml version="1.0" encoding="UTF-8"?>
<svg version="1.1" xmlns="http://www.w3.org/2000/svg" width="214" height="252" viewBox="0 0 214 252">
<path d="M29.00 64.00 L29.00 64.00 L29.00 194.04 L29.00 196.24 L29.00 199.86 L29.00 203.49 L29.00 207.12 L29.00 210.74 L29.00 214.37 L29.00 218.00 L29.00 218.00 L29.00 218.00 L49.59 218.00 L53.70 218.00 L61.95 218.00 L78.45 218.00 L86.71 218.00 L94.98 218.00 L98.13 218.00 L104.44 218.00 L108.00 218.00 L111.56 218.00 L117.87 218.00 L121.02 218.00 L129.29 218.00 L137.55 218.00 L154.05 218.00 L162.30 218.00 L166.41 218.00 L187.00 218.00 L187.00 218.00 L187.00 218.00 L187.00 132.35 L187.00 128.31 L187.00 120.25 L187.00 116.22 L187.00 64.00 L187.00 64.00 L187.00 64.00 L141.00 64.00 L141.00 64.00 L141.00 64.00 L141.00 71.16 L141.00 71.95 L141.00 72.74 L141.00 74.31 L141.00 75.09 L141.00 75.87 L141.00 79.00 L141.00 79.00 L141.00 79.00 L170.90 79.00 L170.91 79.00 L170.92 79.00 L170.93 79.00 L170.94 79.01 L170.95 79.01 L170.96 79.02 L170.96 79.02 L170.97 79.03 L170.98 79.04 L170.98 79.04 L170.99 79.05 L170.99 79.06 L171.00 79.07 L171.00 79.08 L171.00 79.09 L171.00 79.10 L171.00 128.29 L171.00 133.16 L171.00 138.03 L171.00 142.90 L171.00 147.75 L171.00 152.61 L171.00 157.46 L171.00 162.31 L171.00 167.15 L171.00 171.90 L171.00 171.91 L171.00 171.92 L171.00 171.93 L170.99 171.94 L170.99 171.95 L170.98 171.95 L170.98 171.96 L170.97 171.97 L170.96 171.98 L170.95 171.98 L170.95 171.99 L170.94 171.99 L170.93 171.99 L170.92 172.00 L170.91 172.00 L170.90 172.00 L169.19 171.97 L169.19 171.97 L167.36 172.00 L167.36 172.00 L165.50 172.07 L165.50 172.07 L163.63 172.18 L161.75 172.29 L159.86 172.42 L159.86 172.42 L157.98 172.54 L157.98 172.54 L156.09 172.64 L156.09 172.64 L154.22 172.71 L154.22 172.71 L152.36 172.74 L152.36 172.74 L150.52 172.71 L150.51 172.71 L148.70 172.61 L148.69 172.61 L146.90 172.43 L146.90 172.43 L145.14 172.16 L145.14 172.16 L143.42 171.79 L143.42 171.79 L142.88 171.63 L142.88 171.63 L142.88 171.63 L142.43 171.61 L142.43 171.61 L141.57 171.55 L141.56 171.55 L140.79 171.46 L140.79 171.46 L140.09 171.34 L140.09 171.34 L139.46 171.19 L139.45 171.18 L138.87 171.00 L138.86 170.99 L138.32 170.77 L138.31 170.76 L137.78 170.49 L137.77 170.49 L137.25 170.17 L137.25 170.17 L136.72 169.80 L136.71 169.80 L136.16 169.38 L136.15 169.37 L135.56 168.89 L135.56 168.89 L134.92 168.35 L134.92 168.35 L134.21 167.75 L134.20 167.74 L133.94 167.46 L133.70 167.20 L133.70 167.20 L133.48 166.96 L133.48 166.96 L133.29 166.75 L133.29 166.75 L133.11 166.56 L133.11 166.55 L132.95 166.38 L132.95 166.38 L132.81 166.21 L132.80 166.21 L132.67 166.06 L132.67 166.05 L132.54 165.90 L132.54 165.90 L132.41 165.76 L132.41 165.76 L132.28 165.61 L132.28 165.61 L132.16 165.46 L132.16 165.45 L132.03 165.30 L132.03 165.29 L131.89 165.12 L131.89 165.12 L131.74 164.94 L131.74 164.94 L131.58 164.74 L131.58 164.74 L131.41 164.52 L131.41 164.52 L131.21 164.27 L131.00 164.00 L131.00 164.00 L130.90 163.88 L130.79 163.76 L130.69 163.63 L130.59 163.51 L130.48 163.39 L130.38 163.27 L130.27 163.15 L130.17 163.02 L130.07 162.90 L129.96 162.78 L129.86 162.66 L129.75 162.53 L129.65 162.41 L129.54 162.29 L129.44 162.16 L129.33 162.04 L129.22 161.91 L129.12 161.79 L129.02 161.67 L129.01 161.66 L128.07 160.16 L128.07 160.16 L127.21 158.70 L127.21 158.70 L126.43 157.26 L126.43 157.26 L125.73 155.86 L125.73 155.85 L125.10 154.46 L125.09 154.46 L124.53 153.08 L124.53 153.08 L124.03 151.70 L124.03 151.70 L123.58 150.32 L123.58 150.32 L123.18 148.93 L123.18 148.93 L122.83 147.53 L122.83 147.52 L122.53 146.10 L122.53 146.09 L122.26 144.64 L122.26 144.63 L122.02 143.14 L122.02 143.14 L121.81 141.60 L121.81 141.60 L121.62 140.01 L121.62 140.00 L121.62 140.00 L121.62 140.00 L121.62 140.00 L121.10 140.00 L121.09 140.00 L121.08 140.00 L121.07 140.00 L121.06 139.99 L121.05 139.99 L121.04 139.98 L121.04 139.98 L121.03 139.97 L121.02 139.96 L121.02 139.96 L121.01 139.95 L121.01 139.94 L121.00 139.93 L121.00 139.92 L121.00 139.91 L121.00 139.90 L121.00 133.00 L121.00 133.00 L121.00 133.00 L107.63 133.00 L106.16 133.00 L104.69 133.00 L93.00 133.00 L93.00 133.00 L93.00 133.00 L93.00 144.99 L93.00 145.00 L93.00 145.01 L92.67 146.39 L92.67 146.40 L92.29 147.77 L92.29 147.77 L91.88 149.12 L91.88 149.13 L91.42 150.46 L91.42 150.46 L90.92 151.77 L90.92 151.78 L90.38 153.07 L90.38 153.07 L89.81 154.35 L89.81 154.35 L89.19 155.60 L89.19 155.60 L88.54 156.84 L88.53 156.84 L87.84 158.05 L87.84 158.05 L87.11 159.24 L87.11 159.24 L86.35 160.41 L86.35 160.42 L85.55 161.56 L85.54 161.57 L84.71 162.69 L84.71 162.69 L83.83 163.80 L83.83 163.80 L82.93 164.88 L82.92 164.88 L81.98 165.94 L81.98 165.95 L81.01 166.98 L81.01 166.98 L80.01 167.99 L80.00 168.00 L80.00 168.00 L79.99 168.01 L79.25 168.45 L79.25 168.45 L78.55 168.85 L78.54 168.85 L77.87 169.21 L77.87 169.21 L77.18 169.52 L77.18 169.53 L76.46 169.80 L76.45 169.80 L75.79 170.00 L75.79 170.00 L75.79 170.00 L75.30 170.33 L75.29 170.33 L74.11 171.02 L74.10 171.02 L72.89 171.59 L72.88 171.60 L71.61 172.06 L71.60 172.07 L70.23 172.43 L70.23 172.44 L68.73 172.71 L68.73 172.71 L67.07 172.90 L67.06 172.90 L65.21 173.01 L65.21 173.01 L63.13 173.04 L63.13 173.04 L60.79 173.00 L60.78 173.00 L58.15 172.91 L58.15 172.91 L55.18 172.75 L55.18 172.75 L51.86 172.54 L51.86 172.54 L48.14 172.29 L48.14 172.29 L44.09 172.01 L44.08 172.01 L44.07 172.00 L44.06 172.00 L44.05 172.00 L44.05 171.99 L44.04 171.99 L44.03 171.98 L44.02 171.97 L44.02 171.96 L44.01 171.95 L44.01 171.95 L44.00 171.94 L44.00 171.93 L44.00 171.92 L44.00 171.91 L44.00 79.10 L44.00 79.09 L44.00 79.08 L44.00 79.07 L44.01 79.06 L44.01 79.05 L44.02 79.04 L44.02 79.04 L44.03 79.03 L44.04 79.02 L44.04 79.02 L44.05 79.01 L44.06 79.01 L44.07 79.00 L44.08 79.00 L44.09 79.00 L44.10 79.00 L74.00 79.00 L74.00 79.00 L74.00 79.00 L74.00 71.84 L74.00 71.05 L74.00 70.26 L74.00 64.00 L74.00 64.00 L74.00 64.00 L29.00 64.00 L29.00 64.00 Z M57.90 186.00 L57.91 186.00 L57.92 186.00 L57.93 186.00 L57.94 186.01 L57.95 186.01 L57.96 186.02 L57.96 186.02 L57.97 186.03 L57.98 186.04 L57.98 186.04 L57.99 186.05 L57.99 186.06 L58.00 186.07 L58.00 186.08 L58.00 186.09 L58.00 186.10 L58.00 194.00 L58.00 194.00 L58.00 194.00 L157.00 194.00 L157.00 194.00 L157.00 194.00 L157.00 193.58 L157.00 193.17 L157.00 192.75 L157.00 192.33 L157.00 186.10 L157.00 186.09 L157.00 186.08 L157.00 186.07 L157.01 186.06 L157.01 186.05 L157.02 186.04 L157.02 186.04 L157.03 186.03 L157.04 186.02 L157.04 186.02 L157.05 186.01 L157.06 186.01 L157.07 186.00 L157.08 186.00 L157.09 186.00 L157.10 186.00 L170.90 186.00 L170.91 186.00 L170.92 186.00 L170.93 186.00 L170.94 186.01 L170.95 186.01 L170.96 186.02 L170.96 186.02 L170.97 186.03 L170.98 186.04 L170.98 186.04 L170.99 186.05 L170.99 186.06 L171.00 186.07 L171.00 186.08 L171.00 186.09 L171.00 186.10 L171.00 187.77 L171.00 188.66 L171.00 189.54 L171.00 202.90 L171.00 202.91 L171.00 202.92 L171.00 202.93 L170.99 202.94 L170.99 202.95 L170.98 202.96 L170.98 202.96 L170.97 202.97 L170.96 202.98 L170.96 202.98 L170.95 202.99 L170.94 202.99 L170.93 203.00 L170.92 203.00 L170.91 203.00 L170.90 203.00 L44.10 203.00 L44.09 203.00 L44.08 203.00 L44.07 203.00 L44.06 202.99 L44.05 202.99 L44.04 202.98 L44.04 202.98 L44.03 202.97 L44.02 202.96 L44.02 202.96 L44.01 202.95 L44.01 202.94 L44.00 202.93 L44.00 202.92 L44.00 202.91 L44.00 202.90 L44.00 186.10 L44.00 186.09 L44.00 186.08 L44.00 186.07 L44.01 186.06 L44.01 186.05 L44.02 186.04 L44.02 186.04 L44.03 186.03 L44.04 186.02 L44.04 186.02 L44.05 186.01 L44.06 186.01 L44.07 186.00 L44.08 186.00 L44.09 186.00 L44.10 186.00 L57.90 186.00 Z M75.00 114.00 L75.00 114.00 L74.91 114.49 L74.91 114.49 L74.83 114.96 L74.83 114.96 L74.78 115.40 L74.78 115.40 L74.74 115.82 L74.74 115.82 L74.72 116.22 L74.72 116.23 L74.72 116.62 L74.72 116.62 L74.73 116.99 L74.73 117.00 L74.77 117.36 L74.77 117.37 L74.82 117.73 L74.82 117.73 L74.89 118.09 L74.89 118.09 L74.98 118.44 L74.98 118.45 L75.08 118.81 L75.08 118.81 L75.20 119.17 L75.20 119.17 L75.33 119.54 L75.33 119.55 L75.49 119.93 L75.49 119.93 L75.65 120.32 L75.65 120.33 L75.84 120.74 L75.84 120.74 L76.04 121.17 L76.25 121.62 L76.25 121.62 L76.25 121.62 L76.76 122.06 L77.23 122.46 L77.23 122.46 L77.66 122.81 L77.66 122.81 L78.06 123.12 L78.06 123.12 L78.45 123.39 L78.45 123.40 L78.83 123.63 L78.83 123.63 L79.21 123.84 L79.22 123.84 L79.62 124.01 L79.62 124.01 L80.04 124.15 L80.04 124.16 L80.50 124.28 L80.50 124.28 L81.01 124.37 L81.01 124.37 L81.57 124.45 L81.57 124.45 L82.19 124.51 L82.19 124.51 L82.89 124.56 L82.89 124.56 L83.68 124.59 L83.68 124.59 L84.56 124.62 L85.55 124.64 L86.66 124.65 L87.89 124.67 L87.89 124.67 L88.08 124.67 L88.28 124.66 L88.47 124.66 L88.66 124.66 L88.85 124.66 L89.04 124.66 L89.23 124.65 L89.42 124.65 L89.61 124.65 L89.80 124.65 L89.99 124.65 L90.18 124.64 L90.37 124.64 L90.56 124.64 L90.75 124.64 L90.94 124.64 L91.12 124.63 L91.31 124.63 L91.50 124.63 L91.50 124.63 L91.90 124.63 L92.30 124.63 L92.69 124.63 L93.09 124.63 L93.49 124.63 L93.89 124.63 L94.29 124.63 L94.68 124.63 L95.08 124.63 L95.48 124.63 L95.88 124.63 L96.28 124.63 L96.67 124.63 L97.07 124.63 L97.47 124.63 L97.87 124.64 L98.27 124.63 L98.66 124.63 L99.06 124.63 L99.69 124.63 L100.32 124.62 L100.95 124.62 L101.57 124.61 L102.20 124.61 L102.83 124.60 L103.46 124.60 L104.09 124.59 L104.71 124.59 L105.34 124.58 L105.97 124.58 L106.60 124.58 L107.22 124.58 L107.85 124.57 L108.48 124.57 L108.48 124.57 L109.11 124.57 L109.11 124.57 L109.74 124.57 L109.74 124.57 L110.36 124.57 L110.36 124.57 L110.99 124.58 L110.99 124.58 L111.40 124.58 L111.81 124.58 L112.22 124.58 L112.63 124.58 L113.04 124.58 L113.45 124.59 L113.86 124.59 L114.27 124.59 L114.68 124.59 L115.09 124.59 L115.50 124.59 L115.91 124.59 L116.32 124.59 L116.73 124.59 L117.14 124.59 L117.55 124.59 L117.96 124.59 L118.37 124.59 L118.78 124.59 L118.98 124.58 L119.18 124.58 L119.38 124.58 L119.57 124.58 L119.77 124.58 L119.97 124.58 L120.16 124.58 L120.36 124.58 L120.56 124.58 L120.75 124.58 L120.95 124.57 L121.14 124.57 L121.34 124.57 L121.53 124.57 L121.72 124.57 L121.92 124.57 L122.11 124.57 L122.31 124.57 L122.50 124.57 L122.50 124.57 L122.69 124.57 L122.89 124.57 L123.08 124.57 L123.27 124.57 L123.46 124.57 L123.65 124.57 L123.84 124.57 L124.03 124.57 L124.22 124.57 L124.41 124.57 L124.60 124.58 L124.79 124.58 L124.98 124.58 L125.17 124.58 L125.36 124.58 L125.55 124.58 L125.73 124.58 L125.92 124.58 L126.11 124.58 L126.11 124.58 L126.29 124.58 L126.47 124.58 L126.65 124.57 L126.83 124.57 L127.01 124.57 L127.18 124.57 L127.36 124.56 L127.54 124.56 L127.71 124.56 L127.89 124.56 L128.07 124.55 L128.24 124.55 L128.42 124.55 L128.59 124.55 L128.77 124.54 L128.94 124.54 L129.12 124.54 L129.29 124.54 L129.47 124.53 L129.47 124.53 L129.63 124.53 L129.78 124.53 L129.94 124.53 L130.10 124.53 L130.26 124.53 L130.41 124.53 L130.57 124.53 L130.72 124.53 L130.88 124.52 L131.03 124.52 L131.19 124.52 L131.34 124.52 L131.50 124.52 L131.65 124.52 L131.80 124.52 L131.96 124.52 L132.11 124.52 L132.27 124.52 L132.42 124.51 L132.42 124.51 L132.42 124.51 L132.93 124.41 L132.93 124.41 L133.40 124.29 L133.41 124.29 L133.85 124.16 L133.85 124.16 L134.27 124.02 L134.27 124.02 L134.66 123.87 L134.66 123.86 L135.03 123.70 L135.03 123.70 L135.38 123.52 L135.38 123.52 L135.72 123.33 L135.72 123.33 L136.04 123.12 L136.04 123.12 L136.34 122.90 L136.34 122.89 L136.64 122.65 L136.64 122.65 L136.93 122.39 L136.93 122.39 L137.22 122.11 L137.22 122.11 L137.50 121.82 L137.50 121.81 L137.79 121.50 L137.79 121.50 L138.08 121.16 L138.08 121.16 L138.38 120.79 L138.38 120.79 L138.68 120.41 L138.68 120.41 L139.00 120.00 L139.00 120.00 L139.00 120.00 L139.07 119.47 L139.13 118.96 L139.19 118.46 L139.19 118.46 L139.24 117.98 L139.24 117.98 L139.28 117.50 L139.28 117.50 L139.32 117.04 L139.32 117.04 L139.34 116.58 L139.34 116.58 L139.34 116.13 L139.34 116.13 L139.33 115.69 L139.33 115.68 L139.30 115.25 L139.30 115.25 L139.25 114.81 L139.25 114.81 L139.18 114.38 L139.17 114.38 L139.08 113.95 L139.07 113.95 L138.95 113.52 L138.95 113.51 L138.79 113.08 L138.79 113.08 L138.60 112.65 L138.60 112.64 L138.38 112.21 L138.37 112.20 L138.12 111.76 L138.11 111.76 L137.82 111.31 L137.82 111.31 L137.82 111.31 L137.54 111.11 L137.30 110.94 L137.08 110.78 L137.07 110.78 L136.87 110.64 L136.87 110.64 L136.68 110.52 L136.68 110.52 L136.50 110.41 L136.50 110.41 L136.33 110.31 L136.33 110.31 L136.17 110.23 L136.17 110.22 L136.00 110.15 L136.00 110.15 L135.83 110.08 L135.83 110.08 L135.65 110.02 L135.65 110.02 L135.46 109.97 L135.46 109.97 L135.26 109.92 L135.26 109.92 L135.03 109.87 L135.03 109.87 L134.79 109.82 L134.79 109.82 L134.52 109.77 L134.52 109.77 L134.21 109.72 L133.88 109.67 L133.50 109.61 L133.50 109.61 L133.50 109.61 L133.34 109.61 L133.18 109.61 L133.02 109.61 L132.86 109.61 L132.70 109.61 L132.54 109.61 L132.38 109.61 L132.22 109.61 L132.06 109.60 L131.91 109.60 L131.75 109.60 L131.59 109.60 L131.43 109.60 L131.28 109.60 L131.12 109.60 L130.96 109.60 L130.80 109.60 L130.65 109.60 L130.49 109.60 L130.49 109.60 L130.31 109.59 L130.12 109.59 L129.94 109.59 L129.76 109.59 L129.58 109.59 L129.40 109.58 L129.22 109.58 L129.04 109.58 L128.86 109.58 L128.68 109.58 L128.50 109.57 L128.32 109.57 L128.14 109.57 L127.96 109.57 L127.78 109.57 L127.61 109.56 L127.43 109.56 L127.25 109.56 L127.07 109.56 L127.07 109.56 L126.87 109.56 L126.68 109.56 L126.48 109.56 L126.28 109.56 L126.09 109.56 L125.89 109.56 L125.70 109.56 L125.50 109.56 L125.31 109.56 L125.11 109.56 L124.92 109.56 L124.73 109.56 L124.53 109.56 L124.34 109.56 L124.15 109.56 L123.96 109.57 L123.76 109.57 L123.57 109.57 L123.38 109.57 L123.38 109.57 L122.87 109.56 L122.36 109.56 L121.85 109.56 L121.33 109.56 L120.82 109.56 L120.31 109.55 L119.80 109.55 L119.29 109.55 L118.78 109.55 L118.27 109.55 L117.76 109.55 L117.24 109.55 L116.73 109.54 L116.22 109.54 L115.71 109.54 L115.20 109.54 L114.69 109.54 L114.18 109.55 L113.67 109.55 L113.13 109.55 L112.59 109.55 L112.06 109.55 L111.52 109.55 L110.99 109.55 L110.45 109.55 L109.92 109.56 L109.38 109.56 L108.85 109.56 L108.31 109.56 L107.77 109.55 L107.24 109.55 L106.70 109.55 L106.17 109.55 L105.63 109.55 L105.10 109.54 L104.56 109.54 L104.03 109.54 L103.49 109.53 L103.07 109.53 L102.65 109.53 L102.24 109.52 L101.82 109.52 L101.40 109.52 L100.98 109.52 L100.56 109.51 L100.15 109.51 L99.73 109.51 L99.31 109.51 L98.89 109.51 L98.47 109.50 L98.06 109.50 L97.64 109.50 L97.22 109.50 L96.80 109.50 L96.39 109.50 L95.97 109.50 L95.55 109.50 L95.35 109.50 L95.14 109.50 L94.94 109.50 L94.74 109.50 L94.54 109.50 L94.34 109.50 L94.14 109.50 L93.94 109.50 L93.74 109.50 L93.54 109.50 L93.34 109.50 L93.14 109.50 L92.94 109.50 L92.74 109.50 L92.55 109.50 L92.35 109.50 L92.15 109.50 L91.95 109.50 L91.75 109.50 L91.75 109.50 L91.47 109.50 L91.22 109.50 L91.00 109.50 L90.79 109.50 L90.60 109.49 L90.43 109.49 L90.27 109.49 L90.12 109.49 L89.97 109.49 L89.82 109.49 L89.68 109.48 L89.53 109.48 L89.37 109.48 L89.20 109.48 L89.01 109.48 L88.81 109.48 L88.59 109.47 L88.34 109.47 L88.07 109.47 L88.07 109.47 L87.88 109.47 L87.70 109.47 L87.52 109.47 L87.33 109.48 L87.15 109.48 L86.97 109.48 L86.79 109.48 L86.61 109.48 L86.43 109.48 L86.25 109.48 L86.07 109.49 L85.89 109.49 L85.71 109.49 L85.53 109.49 L85.35 109.49 L85.17 109.49 L85.00 109.50 L84.82 109.50 L84.64 109.50 L83.91 109.50 L83.91 109.50 L83.23 109.53 L83.23 109.53 L82.59 109.56 L82.59 109.56 L81.98 109.62 L81.98 109.62 L81.41 109.69 L81.41 109.69 L80.87 109.79 L80.87 109.79 L80.35 109.91 L80.35 109.91 L79.86 110.06 L79.86 110.06 L79.39 110.24 L79.39 110.24 L78.93 110.44 L78.93 110.45 L78.49 110.68 L78.49 110.68 L78.06 110.96 L78.05 110.96 L77.63 111.27 L77.63 111.27 L77.20 111.61 L77.20 111.62 L76.78 112.00 L76.78 112.00 L76.35 112.43 L76.35 112.43 L75.91 112.91 L75.91 112.91 L75.46 113.43 L75.46 113.43 L75.00 114.00 L75.00 114.00 Z M106.14 54.07 L106.14 54.07 L105.45 54.11 L105.45 54.11 L104.77 54.16 L104.77 54.16 L104.10 54.22 L104.09 54.22 L103.43 54.30 L103.43 54.30 L102.76 54.38 L102.76 54.38 L102.10 54.48 L102.10 54.48 L101.44 54.60 L101.44 54.60 L100.78 54.72 L100.78 54.72 L100.12 54.87 L100.12 54.87 L99.45 55.02 L99.45 55.02 L98.79 55.20 L98.79 55.20 L98.12 55.39 L98.12 55.39 L97.44 55.59 L97.44 55.60 L96.76 55.82 L96.75 55.82 L96.07 56.06 L96.06 56.06 L96.06 56.06 L95.09 56.70 L95.08 56.71 L94.13 57.38 L94.13 57.38 L93.21 58.08 L93.21 58.08 L92.32 58.81 L92.32 58.81 L91.45 59.57 L91.45 59.57 L90.62 60.36 L90.62 60.36 L89.81 61.17 L89.81 61.17 L89.04 62.01 L89.04 62.02 L88.31 62.89 L88.31 62.89 L87.61 63.78 L87.61 63.78 L86.94 64.71 L86.94 64.71 L86.31 65.66 L86.31 65.66 L85.72 66.63 L85.72 66.63 L85.16 67.63 L85.16 67.63 L84.65 68.66 L84.65 68.66 L84.17 69.71 L84.17 69.71 L83.74 70.78 L83.74 70.78 L83.35 71.88 L83.35 71.88 L83.00 73.00 L83.00 73.00 L83.00 73.00 L82.91 74.31 L82.91 74.31 L82.85 75.60 L82.85 75.60 L82.81 76.86 L82.81 76.86 L82.80 78.09 L82.80 78.09 L82.82 79.30 L82.82 79.30 L82.88 80.49 L82.88 80.49 L82.98 81.66 L82.98 81.66 L83.11 82.81 L83.11 82.82 L83.29 83.95 L83.29 83.96 L83.51 85.08 L83.51 85.08 L83.78 86.20 L83.79 86.20 L84.11 87.31 L84.11 87.31 L84.48 88.41 L84.48 88.41 L84.91 89.51 L84.91 89.51 L85.40 90.60 L85.40 90.60 L85.95 91.70 L85.95 91.70 L86.57 92.79 L86.57 92.79 L87.25 93.89 L87.25 93.89 L88.00 95.00 L88.00 95.00 L88.00 95.00 L88.72 95.68 L88.72 95.68 L89.44 96.34 L89.44 96.34 L90.16 96.98 L90.16 96.98 L90.89 97.60 L90.89 97.60 L91.62 98.20 L91.62 98.20 L92.36 98.77 L92.36 98.77 L93.11 99.32 L93.11 99.32 L93.87 99.84 L93.87 99.84 L94.64 100.33 L94.64 100.33 L95.43 100.79 L95.43 100.79 L96.23 101.22 L96.23 101.22 L97.05 101.62 L97.05 101.62 L97.89 101.98 L97.89 101.98 L98.75 102.31 L98.75 102.31 L99.64 102.60 L99.64 102.60 L100.54 102.85 L100.55 102.85 L101.48 103.06 L101.48 103.06 L102.44 103.23 L102.45 103.24 L103.43 103.36 L103.44 103.36 L103.63 103.36 L103.82 103.36 L104.01 103.36 L104.20 103.35 L104.39 103.35 L104.58 103.35 L104.76 103.34 L104.95 103.34 L105.14 103.34 L105.33 103.34 L105.51 103.33 L105.70 103.33 L105.89 103.33 L106.07 103.33 L106.26 103.32 L106.44 103.32 L106.63 103.32 L106.81 103.32 L107.00 103.31 L107.00 103.31 L107.89 103.30 L107.89 103.30 L108.76 103.29 L108.76 103.29 L109.62 103.25 L109.62 103.25 L110.47 103.21 L110.47 103.21 L111.30 103.14 L111.30 103.14 L112.12 103.06 L112.12 103.06 L112.93 102.96 L112.93 102.96 L113.73 102.84 L113.73 102.84 L114.52 102.70 L114.52 102.70 L115.30 102.53 L115.30 102.53 L116.08 102.33 L116.08 102.33 L116.85 102.10 L116.85 102.10 L117.62 101.85 L117.62 101.85 L118.38 101.56 L118.38 101.56 L119.14 101.24 L119.15 101.24 L119.90 100.89 L119.91 100.88 L120.67 100.49 L120.67 100.49 L121.43 100.06 L121.43 100.06 L122.19 99.59 L122.20 99.59 L122.20 99.59 L123.32 98.60 L123.32 98.60 L124.35 97.61 L124.36 97.61 L125.31 96.62 L125.31 96.62 L126.19 95.64 L126.19 95.64 L127.00 94.65 L127.00 94.65 L127.74 93.65 L127.74 93.64 L128.42 92.63 L128.42 92.63 L129.03 91.60 L129.03 91.60 L129.59 90.55 L129.59 90.55 L130.10 89.47 L130.10 89.47 L130.56 88.36 L130.56 88.36 L130.98 87.23 L130.98 87.22 L131.35 86.05 L131.35 86.05 L131.69 84.83 L131.69 84.83 L132.00 83.57 L132.00 83.57 L132.28 82.26 L132.28 82.26 L132.54 80.90 L132.54 80.90 L132.78 79.48 L132.78 79.48 L133.00 78.00 L133.00 78.00 L133.00 78.00 L109.10 78.00 L109.09 78.00 L109.08 78.00 L109.07 78.00 L109.06 77.99 L109.05 77.99 L109.04 77.98 L109.04 77.98 L109.03 77.97 L109.02 77.96 L109.02 77.96 L109.01 77.95 L109.01 77.94 L109.00 77.93 L109.00 77.92 L109.00 77.91 L109.00 77.90 L109.00 54.00 L109.00 54.00 L109.00 54.00 L108.27 54.00 L108.27 54.00 L107.55 54.02 L107.55 54.02 L106.84 54.04 L106.84 54.04 L106.14 54.07 Z" fill="#4eb864"/>
</svg>