<svg xmlns="http://www.w3.org/2000/svg" width="1200" height="300" viewBox="0 0 1200 300">
  <defs>
    <pattern id="board" width="16" height="8" patternUnits="userSpaceOnUse">
      <rect width="8" height="8" fill="#303431" />
    </pattern>
  </defs>

  <!-- Background -->
  <rect width="1200" height="300" rx="12" fill="#090c09" />

  <!-- Brand mark icon -->
  <rect x="497" y="72" width="48" height="48" rx="11" fill="#4eb864" />
  <g transform="translate(497, 72) scale(2)">
    <path d="M7 21h10v-1l-1-1v-1c0-1.1-.5-2-1.3-2.6L16 12l1-1V8l-1-2-2-1H9L7 6 6 8v3l1 1 1.3 3.4C7.5 16 7 16.9 7 18v1l-1 1v1z" fill="#090c09" />
    <path d="M9 6c0-1.1.9-2 2-2h.5C12.9 4 14 5.1 14 6.5c0 .8-.4 1.5-1 2l1.5 3.5H9.5L11 8.5C10.4 8 9 7.3 9 6z" fill="#090c09" />
  </g>

  <!-- Brand name -->
  <text x="559" y="109" font-family="Vollkorn, Georgia, serif" font-size="36" font-weight="700" fill="#dbdfdb">echecs</text>

  <!-- Tagline -->
  <text x="600" y="160" font-family="system-ui, sans-serif" font-size="16" text-anchor="middle" fill="#949a95">Build chess apps with confidence.</text>
  <text x="600" y="184" font-family="system-ui, sans-serif" font-size="16" text-anchor="middle" fill="#949a95">23 packages. Zero dependencies. FIDE compliant.</text>

  <!-- Chessboard edge -->
  <rect x="0" y="284" width="1200" height="8" fill="url(#board)" opacity="0.3" />
</svg>
