<svg xmlns="http://www.w3.org/2000/svg" width="1200" height="300" viewBox="0 0 1200 300">
  <defs>
    <pattern id="board" width="16" height="8" patternUnits="userSpaceOnUse">
      <rect width="8" height="8" fill="#303431" />
    </pattern>
  </defs>

  <!-- Background -->
  <rect width="1200" height="300" rx="12" fill="#090c09" />

  <!-- Logo (accent-tinted knight) -->
  <svg x="498" y="62" width="42" height="44" viewBox="29 54 158 164">
    <path fill="#4eb864" d="M29 64v154h158V64h-46v15h29.93l.01.01h.01l.01.01.01.01.01.01.01.01v.01l.01.01v92.86l-.01.01v.01h-.01v.01l-.01.01-.01.01h-.01v.01h-.02l-.01.01h-.02l-1.71-.03-1.83.03-1.86.07-1.87.11-1.88.11-1.89.13-1.88.12-1.89.1-1.87.07-1.86.03-1.84-.03h-.01l-1.81-.1h-.01l-1.79-.18-1.76-.27-1.72-.37-.54-.16-.45-.02-.86-.06h-.01l-.77-.09-.7-.12-.63-.15-.01-.01-.58-.18-.01-.01-.54-.22-.01-.01-.53-.27h-.01l-.52-.32-.53-.37h-.01l-.55-.42-.01-.01-.59-.48-.64-.54-.71-.6-.01-.01-.26-.28-.24-.26-.22-.24-.19-.21-.18-.19v-.01l-.16-.17-.14-.17h-.01l-.13-.15v-.01l-.13-.15-.13-.14-.13-.15-.12-.15v-.01l-.13-.15v-.01l-.14-.17-.15-.18-.16-.2-.17-.22-.2-.25-.21-.27-.1-.12-.11-.12-.1-.13-.1-.12-.11-.12-.1-.12-.11-.12-.1-.13-.1-.12-.11-.12-.1-.12-.11-.13-.1-.12-.11-.12-.1-.13-.11-.12-.11-.13-.1-.12-.1-.12-.01-.01-.94-1.5-.86-1.46-.78-1.44-.7-1.4v-.01l-.63-1.39h-.01l-.56-1.38-.5-1.38-.45-1.38-.4-1.39-.35-1.4v-.01l-.3-1.42v-.01l-.27-1.45v-.01l-.24-1.49-.21-1.54-.19-1.59V140h-.55l-.01-.01h-.01l-.01-.01-.01-.01-.01-.01-.01-.01v-.01l-.01-.01V133H93v12.01l-.33 1.38v.01l-.38 1.37-.41 1.35v.01l-.46 1.33-.5 1.31v.01l-.54 1.29-.57 1.28-.62 1.25-.65 1.24h-.01l-.69 1.21-.73 1.19-.76 1.17v.01l-.8 1.14-.01.01-.83 1.12-.88 1.11-.9 1.08h-.01l-.94 1.06v.01l-.97 1.03-1 1.01-.01.01-.01.01-.74.44-.7.4h-.01l-.67.36-.69.31v.01l-.72.27h-.01l-.66.2-.49.33h-.01l-1.18.69h-.01l-1.21.57-.01.01-1.27.46-.01.01-1.37.36v.01l-1.5.27-1.66.19h-.01l-1.85.11-2.08.03-2.34-.04h-.01l-2.63-.09-2.97-.16-3.32-.21-3.72-.25-4.05-.28h-.01l-.01-.01h-.02v-.01h-.01l-.01-.01-.01-.01v-.01l-.01-.01-.01-.01V79.07l.01-.01v-.01l.01-.01.01-.01.01-.01.01-.01h.01l.01-.01H74V64zm28.9 122h.03l.01.01h.01l.01.01.01.01.01.01.01.01v.01l.01.01V194h99v-7.93l.01-.01v-.01l.01-.01.01-.01.01-.01.01-.01h.01l.01-.01h13.86l.01.01h.01l.01.01.01.01.01.01.01.01v.01l.01.01v16.86l-.01.01v.01l-.01.01-.01.01-.01.01-.01.01h-.01l-.01.01H44.07l-.01-.01h-.01l-.01-.01-.01-.01-.01-.01-.01-.01v-.01l-.01-.01v-16.86l.01-.01v-.01l.01-.01.01-.01.01-.01.01-.01h.01l.01-.01H57.9M75 114l-.09.49-.08.47-.05.44-.04.42-.02.4v.4l.01.37v.01l.04.36v.01l.05.36.07.36.09.35v.01l.1.36.12.36.13.37v.01l.16.38.16.39v.01l.19.41.2.43.21.45.51.44.47.4.43.35.4.31.39.27v.01l.38.23.38.21h.01l.4.17.42.14v.01l.46.12.51.09.56.08.62.06.7.05.79.03.88.03.99.02 1.11.01 1.23.02h.19l.2-.01h.76l.19-.01h.76l.19-.01h.76l.18-.01h6.35l.4.01.4-.01h1.42l.63-.01h.63l.62-.01h.63l.63-.01h.63l.63-.01h.62l.63-.01h1.88l.63-.01h2.51l.63.01h2.05l.41.01h5.33l.2-.01h1.77l.2-.01h3.46l.19.01h1.87l.18-.01h.53l.18-.01h.53l.18-.01h.52l.18-.01h.52l.18-.01h1.25l.16-.01h1.39l.15-.01.51-.1.47-.12h.01l.44-.13.42-.14.39-.15v-.01l.37-.16.35-.18.34-.19.32-.21.3-.22v-.01l.3-.24.29-.26.29-.28.28-.29v-.01l.29-.31.29-.34.3-.37.3-.38.32-.41.07-.53.06-.51.06-.5.05-.48.04-.48.04-.46.02-.46v-.45l-.01-.44v-.01l-.03-.43-.05-.44-.07-.43h-.01l-.09-.43h-.01l-.12-.43v-.01l-.16-.43-.19-.43v-.01l-.22-.43-.01-.01-.25-.44h-.01l-.29-.45-.28-.2-.24-.17-.22-.16h-.01l-.2-.14-.19-.12-.18-.11-.17-.1-.16-.08v-.01l-.17-.07-.17-.07-.18-.06-.19-.05-.2-.05-.23-.05-.24-.05-.27-.05-.31-.05-.33-.05-.38-.06h-1.28l-.16-.01h-1.57l-.18-.01h-.73l-.18-.01h-.72l-.18-.01h-.72l-.17-.01h-3.46l-.19.01h-.58l-.51-.01h-2.05l-.51-.01h-3.07l-.51-.01h-2.04l-.51.01h-3.73l-.53.01h-1.61l-.54-.01h-2.14l-.53-.01h-1.07l-.54-.01h-.84l-.41-.01h-1.26l-.42-.01h-1.67l-.42-.01h-7.68l-.19-.01h-.78l-.14-.01h-.87l-.22-.01h-1.07l-.19.01h-1.08l-.18.01h-.9l-.17.01h-1.09l-.68.03-.64.03-.61.06-.57.07-.54.1-.52.12-.49.15-.47.18-.46.2v.01l-.44.23-.43.28h-.01l-.42.31-.43.34v.01l-.42.38-.43.43-.44.48-.45.52zm31.14-59.93-.69.04-.68.05-.67.06h-.01l-.66.08-.67.08-.66.1-.66.12-.66.12-.66.15-.67.15-.66.18-.67.19-.68.2v.01l-.68.22h-.01l-.68.24h-.01l-.97.64-.01.01-.95.67-.92.7-.89.73-.87.76-.83.79-.81.81-.77.84v.01l-.73.87-.7.89-.67.93-.63.95-.59.97-.56 1-.51 1.03-.48 1.05-.43 1.07-.39 1.1L83 73l-.09 1.31-.06 1.29-.04 1.26-.01 1.23.02 1.21.06 1.19.1 1.17.13 1.15v.01l.18 1.13v.01l.22 1.12.27 1.12h.01l.32 1.11.37 1.1.43 1.1.49 1.09.55 1.1.62 1.09.68 1.1L88 95l.72.68.72.66.72.64.73.62.73.6.74.57.75.55.76.52.77.49.79.46.8.43.82.4.84.36.86.33.89.29.9.25h.01l.93.21.96.17.01.01.98.12h.58l.19-.01h.38l.18-.01h.57l.18-.01h.56l.19-.01h.55l.19-.01.89-.01.87-.01.86-.04.85-.04.83-.07.82-.08.81-.1.8-.12.79-.14.78-.17.78-.2.77-.23.77-.25.76-.29.76-.32h.01l.75-.35.01-.01.76-.39.76-.43.76-.47h.01l1.12-.99 1.03-.99h.01l.95-.99.88-.98.81-.99.74-1v-.01l.68-1.01.61-1.03.56-1.05.51-1.08.46-1.11.42-1.13v-.01l.37-1.17.34-1.22.31-1.26.28-1.31.26-1.36.24-1.42L133 78h-23.93l-.01-.01h-.01l-.01-.01-.01-.01-.01-.01-.01-.01v-.01l-.01-.01V54h-.73l-.72.02-.71.02z"/>
  </svg>

  <!-- Brand name -->
  <text x="552" y="100" font-family="Vollkorn, Georgia, serif" font-size="36" font-weight="700" fill="#dbdfdb">echecs</text>

  <!-- Tagline -->
  <text x="600" y="156" font-family="system-ui, sans-serif" font-size="16" text-anchor="middle" fill="#949a95">Build chess apps with confidence.</text>
  <text x="600" y="180" font-family="system-ui, sans-serif" font-size="16" text-anchor="middle" fill="#949a95">23 packages. Zero dependencies. FIDE compliant.</text>

  <!-- Chessboard edge -->
  <rect x="0" y="284" width="1200" height="8" fill="url(#board)" opacity="0.3" />
</svg>
